<svg width="41" height="65" viewBox="0 0 41 65" fill="none" xmlns="http://www.w3.org/2000/svg">
<circle cx="20.3125" cy="44.6875" r="20.3125" fill="#24A19C"/>
<circle cx="1.16071" cy="1.16071" r="1.16071" transform="matrix(1 0 0 -1 13.3481 2.32141)" fill="black"/>
<circle cx="1.16071" cy="1.16071" r="1.16071" transform="matrix(1 0 0 -1 13.3481 30.1786)" fill="black"/>
<circle cx="1.16071" cy="1.16071" r="1.16071" transform="matrix(1 0 0 -1 13.3481 11.6072)" fill="black"/>
<circle cx="1.16071" cy="1.16071" r="1.16071" transform="matrix(1 0 0 -1 13.3481 39.4642)" fill="black"/>
<circle cx="1.16071" cy="1.16071" r="1.16071" transform="matrix(1 0 0 -1 13.3481 20.8928)" fill="black"/>
<circle cx="1.16071" cy="1.16071" r="1.16071" transform="matrix(1 0 0 -1 13.3481 48.75)" fill="black"/>
<circle cx="1.16071" cy="1.16071" r="1.16071" transform="matrix(1 0 0 -1 24.9553 2.32141)" fill="black"/>
<circle cx="1.16071" cy="1.16071" r="1.16071" transform="matrix(1 0 0 -1 24.9553 30.1786)" fill="black"/>
<circle cx="1.16071" cy="1.16071" r="1.16071" transform="matrix(1 0 0 -1 24.9553 11.6072)" fill="black"/>
<circle cx="1.16071" cy="1.16071" r="1.16071" transform="matrix(1 0 0 -1 24.9553 39.4642)" fill="black"/>
<circle cx="1.16071" cy="1.16071" r="1.16071" transform="matrix(1 0 0 -1 24.9553 20.8928)" fill="black"/>
<circle cx="1.16071" cy="1.16071" r="1.16071" transform="matrix(1 0 0 -1 24.9553 48.75)" fill="black"/>
</svg>
