<svg width="22" height="15" viewBox="0 0 22 15" fill="none" xmlns="http://www.w3.org/2000/svg">
<circle cx="1.19874" cy="1.19874" r="1.19874" transform="matrix(1.33703e-07 -1.01959 -1.01959 -1.33703e-07 22 14.6666)" fill="black"/>
<circle cx="1.19874" cy="1.19874" r="1.19874" transform="matrix(1.33703e-07 -1.01959 -1.01959 -1.33703e-07 2.44443 14.6667)" fill="black"/>
<circle cx="1.19874" cy="1.19874" r="1.19874" transform="matrix(1.33703e-07 -1.01959 -1.01959 -1.33703e-07 12.2222 14.6667)" fill="black"/>
<circle cx="1.19874" cy="1.19874" r="1.19874" transform="matrix(1.33703e-07 -1.01959 -1.01959 -1.33703e-07 22 2.44443)" fill="black"/>
<circle cx="1.19874" cy="1.19874" r="1.19874" transform="matrix(1.33703e-07 -1.01959 -1.01959 -1.33703e-07 2.44443 2.44443)" fill="black"/>
<circle cx="1.19874" cy="1.19874" r="1.19874" transform="matrix(1.33703e-07 -1.01959 -1.01959 -1.33703e-07 12.2222 2.44443)" fill="black"/>
</svg>
