<svg width="20" height="20" viewBox="0 0 20 20" fill="none" xmlns="http://www.w3.org/2000/svg">
<g clip-path="url(#clip0_1_2539)">
<path d="M3.33322 9.16669C3.54562 9.16692 3.74992 9.24825 3.90436 9.39406C4.05881 9.53987 4.15175 9.73915 4.1642 9.95118C4.17665 10.1632 4.10766 10.372 3.97134 10.5349C3.83501 10.6978 3.64164 10.8024 3.43072 10.8275L3.33322 10.8334H2.49989C2.28749 10.8331 2.0832 10.7518 1.92875 10.606C1.7743 10.4602 1.68136 10.2609 1.66891 10.0489C1.65647 9.83682 1.72545 9.62804 1.86178 9.46516C1.9981 9.30228 2.19148 9.19761 2.40239 9.17252L2.49989 9.16669H3.33322Z" fill="#F9B572"/>
<path d="M9.99984 1.66669C10.2039 1.66671 10.401 1.74165 10.5535 1.87728C10.706 2.01292 10.8035 2.19981 10.8273 2.40252L10.8332 2.50002V3.33335C10.8329 3.54575 10.7516 3.75005 10.6058 3.90449C10.46 4.05894 10.2607 4.15188 10.0487 4.16433C9.83664 4.17678 9.62785 4.10779 9.46498 3.97147C9.3021 3.83514 9.19742 3.64177 9.17234 3.43085L9.1665 3.33335V2.50002C9.1665 2.27901 9.2543 2.06704 9.41058 1.91076C9.56686 1.75448 9.77882 1.66669 9.99984 1.66669Z" fill="#F9B572"/>
<path d="M17.5002 9.16669C17.7126 9.16692 17.9169 9.24825 18.0714 9.39406C18.2258 9.53987 18.3187 9.73915 18.3312 9.95118C18.3436 10.1632 18.2747 10.372 18.1383 10.5349C18.002 10.6978 17.8086 10.8024 17.5977 10.8275L17.5002 10.8334H16.6669C16.4545 10.8331 16.2502 10.7518 16.0957 10.606C15.9413 10.4602 15.8484 10.2609 15.8359 10.0489C15.8235 9.83682 15.8924 9.62804 16.0288 9.46516C16.1651 9.30228 16.3585 9.19761 16.5694 9.17252L16.6669 9.16669H17.5002Z" fill="#F9B572"/>
<path d="M4.07748 4.07749C4.22098 3.93401 4.4119 3.84781 4.61442 3.83508C4.81694 3.82234 5.01715 3.88394 5.17748 4.00832L5.25582 4.07749L5.83915 4.66082C5.98861 4.81078 6.07538 5.01201 6.08184 5.22364C6.0883 5.43526 6.01397 5.64141 5.87394 5.80022C5.73392 5.95902 5.53869 6.05857 5.32792 6.07865C5.11715 6.09873 4.90664 6.03783 4.73915 5.90832L4.66082 5.83915L4.07748 5.25582C3.92126 5.09955 3.8335 4.88762 3.8335 4.66665C3.8335 4.44568 3.92126 4.23376 4.07748 4.07749Z" fill="#F9B572"/>
<path d="M14.7441 4.07749C14.894 3.92803 15.0953 3.84126 15.3069 3.8348C15.5185 3.82834 15.7247 3.90267 15.8835 4.0427C16.0423 4.18273 16.1418 4.37795 16.1619 4.58872C16.182 4.79949 16.1211 5.01 15.9916 5.17749L15.9224 5.25582L15.3391 5.83916C15.1891 5.98861 14.9879 6.07539 14.7763 6.08185C14.5646 6.08831 14.3585 6.01398 14.1997 5.87395C14.0409 5.73392 13.9413 5.5387 13.9212 5.32793C13.9012 5.11716 13.9621 4.90665 14.0916 4.73916L14.1607 4.66082L14.7441 4.07749Z" fill="#F9B572"/>
<path d="M11.6667 15C11.8877 15 12.0996 15.0878 12.2559 15.2441C12.4122 15.4004 12.5 15.6123 12.5 15.8333C12.5 16.4964 12.2366 17.1323 11.7678 17.6011C11.2989 18.0699 10.663 18.3333 10 18.3333C9.33696 18.3333 8.70107 18.0699 8.23223 17.6011C7.76339 17.1323 7.5 16.4964 7.5 15.8333C7.50003 15.6292 7.57496 15.4322 7.7106 15.2797C7.84623 15.1272 8.03312 15.0297 8.23583 15.0058L8.33333 15H11.6667Z" fill="#F9B572"/>
<path d="M10 5C11.0494 5 12.0722 5.33019 12.9236 5.94379C13.7749 6.55739 14.4116 7.4233 14.7434 8.41886C15.0753 9.41442 15.0855 10.4892 14.7726 11.4908C14.4597 12.4925 13.8395 13.3704 13 14C12.8851 14.0863 12.7499 14.1414 12.6075 14.16L12.5 14.1667H7.5C7.31969 14.1667 7.14425 14.1082 7 14C6.16047 13.3704 5.54033 12.4925 5.22743 11.4908C4.91453 10.4892 4.92473 9.41442 5.25658 8.41886C5.58844 7.4233 6.22512 6.55739 7.07645 5.94379C7.92778 5.33019 8.95059 5 10 5Z" fill="#F9B572"/>
</g>
<defs>
<clipPath id="clip0_1_2539">
<rect width="20" height="20" fill="white"/>
</clipPath>
</defs>
</svg>
