<svg width="16" height="16" viewBox="0 0 16 16" fill="none" xmlns="http://www.w3.org/2000/svg">
<g clip-path="url(#clip0_1_2556)">
<path d="M2.6665 12V5.66663C2.6665 4.87098 2.98257 4.10791 3.54518 3.54531C4.10779 2.9827 4.87085 2.66663 5.6665 2.66663H10.3332C10.7271 2.66663 11.1172 2.74422 11.4812 2.89499C11.8452 3.04575 12.1759 3.26673 12.4545 3.54531C12.7331 3.82388 12.954 4.1546 13.1048 4.51858C13.2556 4.88255 13.3332 5.27266 13.3332 5.66663V10.3333C13.3332 10.7273 13.2556 11.1174 13.1048 11.4813C12.954 11.8453 12.7331 12.176 12.4545 12.4546C12.1759 12.7332 11.8452 12.9542 11.4812 13.1049C11.1172 13.2557 10.7271 13.3333 10.3332 13.3333H3.99984C3.64622 13.3333 3.30708 13.1928 3.05703 12.9428C2.80698 12.6927 2.6665 12.3536 2.6665 12Z" stroke="black" stroke-linecap="round" stroke-linejoin="round"/>
<path d="M5.3335 8.00004H7.66683C8.02045 8.00004 8.35959 8.14052 8.60964 8.39057C8.85969 8.64061 9.00016 8.97975 9.00016 9.33337C9.00016 9.687 8.85969 10.0261 8.60964 10.2762C8.35959 10.5262 8.02045 10.6667 7.66683 10.6667H5.3335V6.00004C5.3335 5.82323 5.40373 5.65366 5.52876 5.52864C5.65378 5.40361 5.82335 5.33337 6.00016 5.33337H7.00016C7.35378 5.33337 7.69292 5.47385 7.94297 5.7239C8.19302 5.97395 8.3335 6.31309 8.3335 6.66671C8.3335 7.02033 8.19302 7.35947 7.94297 7.60952C7.69292 7.85956 7.35378 8.00004 7.00016 8.00004H6.00016" stroke="black" stroke-linecap="round" stroke-linejoin="round"/>
<path d="M10.6665 10.6666H10.6732" stroke="black" stroke-linecap="round" stroke-linejoin="round"/>
</g>
<defs>
<clipPath id="clip0_1_2556">
<rect width="16" height="16" fill="white"/>
</clipPath>
</defs>
</svg>
