<svg width="20" height="20" viewBox="0 0 20 20" fill="none" xmlns="http://www.w3.org/2000/svg">
<g clip-path="url(#clip0_1_2297)">
<g clip-path="url(#clip1_1_2297)">
<path d="M10 1.66669C14.6025 1.66669 18.3334 5.39752 18.3334 10C18.3334 14.6025 14.6025 18.3334 10 18.3334C5.39752 18.3334 1.66669 14.6025 1.66669 10C1.66669 5.39752 5.39752 1.66669 10 1.66669ZM10.8334 5.83335H8.33335L8.23585 5.83919C8.03331 5.86328 7.84664 5.96082 7.7112 6.11332C7.57576 6.26583 7.50095 6.46272 7.50095 6.66669C7.50095 6.87066 7.57576 7.06754 7.7112 7.22005C7.84664 7.37256 8.03331 7.4701 8.23585 7.49419L8.33335 7.50002H10.8334V9.16669H9.16669L9.04169 9.17085C8.64488 9.20067 8.27183 9.37148 7.99 9.6524C7.70816 9.93332 7.53613 10.3058 7.50502 10.7025L7.50002 10.8334V12.5L7.50419 12.625C7.53401 13.0218 7.70482 13.3949 7.98574 13.6767C8.26666 13.9585 8.63914 14.1306 9.03585 14.1617L9.16669 14.1667H11.6667L11.7642 14.1609C11.9667 14.1368 12.1534 14.0392 12.2888 13.8867C12.4243 13.7342 12.4991 13.5373 12.4991 13.3334C12.4991 13.1294 12.4243 12.9325 12.2888 12.78C12.1534 12.6275 11.9667 12.5299 11.7642 12.5059L11.6667 12.5H9.16669V10.8334H10.8334L10.9584 10.8292C11.3552 10.7994 11.7282 10.6286 12.01 10.3476C12.2919 10.0667 12.4639 9.69423 12.495 9.29752L12.5 9.16669V7.50002L12.4959 7.37502C12.466 6.97821 12.2952 6.60517 12.0143 6.32333C11.7334 6.04149 11.3609 5.86947 10.9642 5.83835L10.8334 5.83335Z" fill="black"/>
</g>
</g>
<defs>
<clipPath id="clip0_1_2297">
<rect width="20" height="20" fill="white"/>
</clipPath>
<clipPath id="clip1_1_2297">
<rect width="20" height="20" fill="white"/>
</clipPath>
</defs>
</svg>
