<svg width="16" height="16" viewBox="0 0 16 16" fill="none" xmlns="http://www.w3.org/2000/svg">
<g clip-path="url(#clip0_1_2980)">
<path d="M8 8.66669C8.53043 8.66669 9.03914 8.45597 9.41421 8.0809C9.78929 7.70583 10 7.19712 10 6.66669C10 6.13625 9.78929 5.62755 9.41421 5.25247C9.03914 4.8774 8.53043 4.66669 8 4.66669C7.46957 4.66669 6.96086 4.8774 6.58579 5.25247C6.21071 5.62755 6 6.13625 6 6.66669C6 7.19712 6.21071 7.70583 6.58579 8.0809C6.96086 8.45597 7.46957 8.66669 8 8.66669Z" stroke="black" stroke-linecap="round" stroke-linejoin="round"/>
<path d="M8 2C12.8 2 14 3.2 14 8C14 12.8 12.8 14 8 14C3.2 14 2 12.8 2 8C2 3.2 3.2 2 8 2Z" stroke="black" stroke-linecap="round" stroke-linejoin="round"/>
<path d="M4 13.3667V13.3334C4 12.6261 4.28095 11.9478 4.78105 11.4477C5.28115 10.9476 5.95942 10.6667 6.66667 10.6667H9.33333C10.0406 10.6667 10.7189 10.9476 11.219 11.4477C11.719 11.9478 12 12.6261 12 13.3334V13.3667" stroke="black" stroke-linecap="round" stroke-linejoin="round"/>
</g>
<defs>
<clipPath id="clip0_1_2980">
<rect width="16" height="16" fill="white"/>
</clipPath>
</defs>
</svg>
