<svg width="65" height="41" viewBox="0 0 65 41" fill="none" xmlns="http://www.w3.org/2000/svg">
<circle cx="20.3125" cy="20.3125" r="20.3125" transform="matrix(0 1 -1 0 40.625 0)" fill="#24A19C"/>
<circle cx="1.16071" cy="1.16071" r="1.16071" transform="matrix(0 1 1 0 62.6785 13.3483)" fill="black"/>
<circle cx="1.16071" cy="1.16071" r="1.16071" transform="matrix(0 1 1 0 34.8215 13.3483)" fill="black"/>
<circle cx="1.16071" cy="1.16071" r="1.16071" transform="matrix(0 1 1 0 53.3928 13.3483)" fill="black"/>
<circle cx="1.16071" cy="1.16071" r="1.16071" transform="matrix(0 1 1 0 25.5356 13.3483)" fill="black"/>
<circle cx="1.16071" cy="1.16071" r="1.16071" transform="matrix(0 1 1 0 44.1072 13.3483)" fill="black"/>
<circle cx="1.16071" cy="1.16071" r="1.16071" transform="matrix(0 1 1 0 16.25 13.3483)" fill="black"/>
<circle cx="1.16071" cy="1.16071" r="1.16071" transform="matrix(0 1 1 0 62.6785 24.9553)" fill="black"/>
<circle cx="1.16071" cy="1.16071" r="1.16071" transform="matrix(0 1 1 0 34.8215 24.9553)" fill="black"/>
<circle cx="1.16071" cy="1.16071" r="1.16071" transform="matrix(0 1 1 0 53.3928 24.9553)" fill="black"/>
<circle cx="1.16071" cy="1.16071" r="1.16071" transform="matrix(0 1 1 0 25.5356 24.9553)" fill="black"/>
<circle cx="1.16071" cy="1.16071" r="1.16071" transform="matrix(0 1 1 0 44.1072 24.9553)" fill="black"/>
<circle cx="1.16071" cy="1.16071" r="1.16071" transform="matrix(0 1 1 0 16.25 24.9553)" fill="black"/>
</svg>
