<svg width="20" height="20" viewBox="0 0 20 20" fill="none" xmlns="http://www.w3.org/2000/svg">
<g clip-path="url(#clip0_1_2626)">
<path d="M7.5 9.16663C7.5 9.82967 7.76339 10.4656 8.23223 10.9344C8.70107 11.4032 9.33696 11.6666 10 11.6666C10.663 11.6666 11.2989 11.4032 11.7678 10.9344C12.2366 10.4656 12.5 9.82967 12.5 9.16663C12.5 8.50358 12.2366 7.8677 11.7678 7.39886C11.2989 6.93002 10.663 6.66663 10 6.66663C9.33696 6.66663 8.70107 6.93002 8.23223 7.39886C7.76339 7.8677 7.5 8.50358 7.5 9.16663Z" stroke="#666666" stroke-width="1.25" stroke-linecap="round" stroke-linejoin="round"/>
<path d="M14.7141 13.8808L11.1783 17.4167C10.8657 17.7289 10.4421 17.9042 10.0003 17.9042C9.5586 17.9042 9.13493 17.7289 8.82242 17.4167L5.28576 13.8808C4.35344 12.9485 3.71853 11.7606 3.46133 10.4674C3.20412 9.17419 3.33616 7.83376 3.84076 6.61561C4.34535 5.39745 5.19984 4.35628 6.29616 3.62376C7.39248 2.89123 8.68139 2.50024 9.99992 2.50024C11.3184 2.50024 12.6074 2.89123 13.7037 3.62376C14.8 4.35628 15.6545 5.39745 16.1591 6.61561C16.6637 7.83376 16.7957 9.17419 16.5385 10.4674C16.2813 11.7606 15.6464 12.9485 14.7141 13.8808Z" stroke="#666666" stroke-width="1.25" stroke-linecap="round" stroke-linejoin="round"/>
</g>
<defs>
<clipPath id="clip0_1_2626">
<rect width="20" height="20" fill="white"/>
</clipPath>
</defs>
</svg>
