<svg width="30" height="26" viewBox="0 0 30 26" fill="none" xmlns="http://www.w3.org/2000/svg">
<path d="M29.3375 4.92762C28.7656 4.19529 27.8794 3.71429 26.8744 3.71429H21.2494V1.85714C21.2494 0.833238 20.4081 0 19.3744 0H10.6244C9.59063 0 8.74937 0.833238 8.74937 1.85714V3.71429H3.12437C2.11937 3.71429 1.23312 4.19467 0.66125 4.92762C0.63875 4.94929 0.62125 4.97343 0.6025 4.99819C0.2275 5.5089 0 6.13105 0 6.80952V22.9048C0 24.6115 1.40188 26 3.125 26H26.875C28.5981 26 30 24.6115 30 22.9048V6.80952C30 6.13167 29.7719 5.5089 29.3975 4.99819C29.3787 4.97343 29.3612 4.94929 29.3388 4.92762H29.3375ZM9.99937 1.85714C9.99937 1.51543 10.2794 1.2381 10.6244 1.2381H19.3744C19.7194 1.2381 19.9994 1.51543 19.9994 1.85714V3.71429H9.99937V1.85714ZM26.8744 4.95238C27.3781 4.95238 27.8338 5.15233 28.1713 5.47362L25.1175 12.1624C24.7137 13.047 23.8188 13.619 22.8375 13.619H17.5V13C17.5 11.9761 16.6588 11.1429 15.625 11.1429H14.375C13.3413 11.1429 12.5 11.9761 12.5 13V13.619H7.1625C6.18125 13.619 5.28625 13.047 4.8825 12.1624L1.82875 5.47362C2.16562 5.15233 2.62187 4.95238 3.12562 4.95238H26.8756H26.8744ZM13.7494 13C13.7494 12.6583 14.0294 12.381 14.3744 12.381H15.6244C15.9694 12.381 16.2494 12.6583 16.2494 13V15.4762C16.2494 15.8179 15.9694 16.0952 15.6244 16.0952H14.3744C14.0294 16.0952 13.7494 15.8179 13.7494 15.4762V13ZM26.8744 24.7619H3.12437C2.09062 24.7619 1.24937 23.9287 1.24937 22.9048V7.21191L3.7425 12.6731C4.34875 14.0004 5.69062 14.8571 7.16187 14.8571H12.4994V15.4762C12.4994 16.5001 13.3406 17.3333 14.3744 17.3333H15.6244C16.6581 17.3333 17.4994 16.5001 17.4994 15.4762V14.8571H22.8369C24.3081 14.8571 25.65 13.9998 26.2563 12.6731L28.7494 7.21191V22.9048C28.7494 23.9287 27.9081 24.7619 26.8744 24.7619Z" fill="#121212"/>
</svg>
