<svg width="65" height="41" viewBox="0 0 65 41" fill="none" xmlns="http://www.w3.org/2000/svg">
<circle cx="44.6875" cy="20.3125" r="20.3125" transform="matrix(0 -1 1 0 24.375 65)" fill="#24A19C"/>
<circle cx="1.16071" cy="1.16071" r="1.16071" transform="matrix(0 -1 -1 0 2.32153 27.2767)" fill="black"/>
<circle cx="1.16071" cy="1.16071" r="1.16071" transform="matrix(0 -1 -1 0 30.1785 27.2767)" fill="black"/>
<circle cx="1.16071" cy="1.16071" r="1.16071" transform="matrix(0 -1 -1 0 11.6072 27.2767)" fill="black"/>
<circle cx="1.16071" cy="1.16071" r="1.16071" transform="matrix(0 -1 -1 0 39.4644 27.2767)" fill="black"/>
<circle cx="1.16071" cy="1.16071" r="1.16071" transform="matrix(0 -1 -1 0 20.8928 27.2767)" fill="black"/>
<circle cx="1.16071" cy="1.16071" r="1.16071" transform="matrix(0 -1 -1 0 48.75 27.2767)" fill="black"/>
<circle cx="1.16071" cy="1.16071" r="1.16071" transform="matrix(0 -1 -1 0 2.32153 15.6697)" fill="black"/>
<circle cx="1.16071" cy="1.16071" r="1.16071" transform="matrix(0 -1 -1 0 30.1785 15.6697)" fill="black"/>
<circle cx="1.16071" cy="1.16071" r="1.16071" transform="matrix(0 -1 -1 0 11.6072 15.6697)" fill="black"/>
<circle cx="1.16071" cy="1.16071" r="1.16071" transform="matrix(0 -1 -1 0 39.4644 15.6697)" fill="black"/>
<circle cx="1.16071" cy="1.16071" r="1.16071" transform="matrix(0 -1 -1 0 20.8928 15.6697)" fill="black"/>
<circle cx="1.16071" cy="1.16071" r="1.16071" transform="matrix(0 -1 -1 0 48.75 15.6697)" fill="black"/>
</svg>
