<svg width="16" height="16" viewBox="0 0 16 16" fill="none" xmlns="http://www.w3.org/2000/svg">
<g clip-path="url(#clip0_1_2199)">
<path d="M11.3334 2.22664C12.3389 2.80721 13.1753 3.64032 13.7599 4.6435C14.3445 5.64669 14.6569 6.78515 14.6663 7.9462C14.6757 9.10724 14.3817 10.2506 13.8134 11.2631C13.2451 12.2756 12.4222 13.1221 11.4262 13.7188C10.4302 14.3156 9.29562 14.6419 8.13477 14.6653C6.97393 14.6888 5.82707 14.4087 4.80774 13.8528C3.78841 13.2968 2.93195 12.4843 2.32315 11.4956C1.71435 10.507 1.37431 9.37644 1.33671 8.21597L1.33337 7.99997L1.33671 7.78397C1.37404 6.63263 1.70907 5.51061 2.30913 4.5273C2.90919 3.54399 3.75381 2.73294 4.76064 2.17322C5.76746 1.61351 6.90214 1.32423 8.05404 1.33359C9.20595 1.34295 10.3358 1.65063 11.3334 2.22664ZM10.4714 6.1953C10.3566 6.08052 10.2038 6.01156 10.0418 6.00138C9.87981 5.99119 9.71964 6.04047 9.59137 6.13997L9.52871 6.1953L7.33337 8.38997L6.47137 7.52864L6.40871 7.4733C6.28043 7.37387 6.12029 7.32465 5.95831 7.33487C5.79633 7.34509 5.64365 7.41405 5.52888 7.52881C5.41412 7.64357 5.34516 7.79626 5.33494 7.95824C5.32472 8.12022 5.37394 8.28036 5.47337 8.40864L5.52871 8.4713L6.86204 9.80464L6.92471 9.85997C7.04162 9.95068 7.1854 9.99991 7.33337 9.99991C7.48135 9.99991 7.62513 9.95068 7.74204 9.85997L7.80471 9.80464L10.4714 7.13797L10.5267 7.0753C10.6262 6.94703 10.6755 6.78687 10.6653 6.62485C10.6551 6.46283 10.5862 6.3101 10.4714 6.1953Z" fill="#219994"/>
</g>
<defs>
<clipPath id="clip0_1_2199">
<rect width="16" height="16" fill="white"/>
</clipPath>
</defs>
</svg>
