<svg width="20" height="20" viewBox="0 0 20 20" fill="none" xmlns="http://www.w3.org/2000/svg">
<g clip-path="url(#clip0_1_2316)">
<g clip-path="url(#clip1_1_2316)">
<path d="M10 1.66669C14.6025 1.66669 18.3334 5.39752 18.3334 10C18.3334 14.6025 14.6025 18.3334 10 18.3334C5.39752 18.3334 1.66669 14.6025 1.66669 10C1.66669 5.39752 5.39752 1.66669 10 1.66669ZM10.8334 5.83335H9.16669L9.04169 5.83752C8.62239 5.86906 8.23051 6.05791 7.9446 6.36623C7.65869 6.67455 7.49989 7.07954 7.50002 7.50002C7.49931 7.70483 7.57405 7.90273 7.70997 8.05594C7.84589 8.20916 8.03347 8.30695 8.23691 8.33065C8.44034 8.35436 8.64538 8.30231 8.81289 8.18445C8.98039 8.06659 9.09863 7.89118 9.14502 7.69169L9.16169 7.59752L9.16669 7.50002H10.8334V9.16669H9.16669L9.05585 9.17252C8.13002 9.27252 8.09419 10.6142 8.94919 10.81L9.05585 10.8275L9.16669 10.8334H10.8334V12.5H9.16669L9.16085 12.4025C9.13577 12.1916 9.03109 11.9982 8.86821 11.8619C8.70534 11.7256 8.49655 11.6566 8.28452 11.669C8.07248 11.6815 7.8732 11.7744 7.72739 11.9289C7.58159 12.0833 7.50026 12.2876 7.50002 12.5C7.49989 12.9205 7.65869 13.3255 7.9446 13.6338C8.23051 13.9421 8.62239 14.131 9.04169 14.1625L9.16669 14.1667H10.8334L10.9584 14.1625C11.3552 14.1327 11.7282 13.9619 12.01 13.681C12.2919 13.4001 12.4639 13.0276 12.495 12.6309L12.5 12.5V10.8334L12.4959 10.7084C12.4813 10.5162 12.4334 10.3282 12.3542 10.1525L12.2917 10.0259L12.2759 9.99919L12.2925 9.97419C12.4052 9.76981 12.4738 9.54416 12.4942 9.31169L12.5 9.16669V7.50002L12.4959 7.37502C12.466 6.97821 12.2952 6.60517 12.0143 6.32333C11.7334 6.04149 11.3609 5.86947 10.9642 5.83835L10.8334 5.83335Z" fill="black"/>
</g>
</g>
<defs>
<clipPath id="clip0_1_2316">
<rect width="20" height="20" fill="white"/>
</clipPath>
<clipPath id="clip1_1_2316">
<rect width="20" height="20" fill="white"/>
</clipPath>
</defs>
</svg>
