<svg width="20" height="20" viewBox="0 0 20 20" fill="none" xmlns="http://www.w3.org/2000/svg">
<g clip-path="url(#clip0_1_2309)">
<g clip-path="url(#clip1_1_2309)">
<path d="M10 1.66663C14.6025 1.66663 18.3334 5.39746 18.3334 9.99996C18.3334 14.6025 14.6025 18.3333 10 18.3333C5.39752 18.3333 1.66669 14.6025 1.66669 9.99996C1.66669 5.39746 5.39752 1.66663 10 1.66663ZM10.8284 6.57163C10.7592 5.92413 9.98835 5.60496 9.48085 6.01329L9.41085 6.07746L7.74419 7.74413L7.67502 7.82246C7.56163 7.9686 7.50009 8.14832 7.50009 8.33329C7.50009 8.51827 7.56163 8.69798 7.67502 8.84413L7.74419 8.92246L7.82252 8.99163C7.96866 9.10501 8.14838 9.16656 8.33335 9.16656C8.51833 9.16656 8.69804 9.10501 8.84419 8.99163L8.92252 8.92246L9.16669 8.67829V13.3333L9.17252 13.4308C9.19661 13.6333 9.29415 13.82 9.44666 13.9554C9.59917 14.0909 9.79605 14.1657 10 14.1657C10.204 14.1657 10.4009 14.0909 10.5534 13.9554C10.7059 13.82 10.8034 13.6333 10.8275 13.4308L10.8334 13.3333V6.66663L10.8284 6.57163Z" fill="black"/>
</g>
</g>
<defs>
<clipPath id="clip0_1_2309">
<rect width="20" height="20" fill="white"/>
</clipPath>
<clipPath id="clip1_1_2309">
<rect width="20" height="20" fill="white"/>
</clipPath>
</defs>
</svg>
