<svg width="12" height="34" viewBox="0 0 12 34" fill="none" xmlns="http://www.w3.org/2000/svg">
<circle cx="0.987406" cy="0.987406" r="0.987406" transform="matrix(-1.01275 -8.85372e-08 -8.85372e-08 1.01275 11.9999 16.0001)" fill="black"/>
<circle cx="0.987406" cy="0.987406" r="0.987406" transform="matrix(-1.01275 -8.85372e-08 -8.85372e-08 1.01275 11.9999 32)" fill="black"/>
<circle cx="0.987406" cy="0.987406" r="0.987406" transform="matrix(-1.01275 -8.85372e-08 -8.85372e-08 1.01275 11.9999 8.00012)" fill="black"/>
<circle cx="0.987406" cy="0.987406" r="0.987406" transform="matrix(-1.01275 -8.85372e-08 -8.85372e-08 1.01275 11.9999 24.0001)" fill="black"/>
<circle cx="0.987406" cy="0.987406" r="0.987406" transform="matrix(-1.01275 -8.85372e-08 -8.85372e-08 1.01275 11.9999 0)" fill="black"/>
<circle cx="0.987406" cy="0.987406" r="0.987406" transform="matrix(-1.01275 -8.85372e-08 -8.85372e-08 1.01275 2.00003 16.0001)" fill="black"/>
<circle cx="0.987406" cy="0.987406" r="0.987406" transform="matrix(-1.01275 -8.85372e-08 -8.85372e-08 1.01275 2.00003 32)" fill="black"/>
<circle cx="0.987406" cy="0.987406" r="0.987406" transform="matrix(-1.01275 -8.85372e-08 -8.85372e-08 1.01275 2.00003 8.00012)" fill="black"/>
<circle cx="0.987406" cy="0.987406" r="0.987406" transform="matrix(-1.01275 -8.85372e-08 -8.85372e-08 1.01275 2.00003 24.0001)" fill="black"/>
<circle cx="0.987406" cy="0.987406" r="0.987406" transform="matrix(-1.01275 -8.85372e-08 -8.85372e-08 1.01275 2.00003 0.000247253)" fill="black"/>
</svg>
