<svg width="20" height="38" viewBox="0 0 20 38" fill="none" xmlns="http://www.w3.org/2000/svg">
<circle cx="1.69427" cy="1.69427" r="1.69427" transform="matrix(-4.45629e-08 1.01948 1.01948 4.45629e-08 0 0)" fill="black"/>
<circle cx="1.69427" cy="1.69427" r="1.69427" transform="matrix(-4.45629e-08 1.01948 1.01948 4.45629e-08 16.409 0)" fill="black"/>
<circle cx="1.69427" cy="1.69427" r="1.69427" transform="matrix(-4.45629e-08 1.01948 1.01948 4.45629e-08 0 17.2727)" fill="black"/>
<circle cx="1.69427" cy="1.69427" r="1.69427" transform="matrix(-4.45629e-08 1.01948 1.01948 4.45629e-08 0 34.5454)" fill="black"/>
<circle cx="1.69427" cy="1.69427" r="1.69427" transform="matrix(-4.45629e-08 1.01948 1.01948 4.45629e-08 16.409 17.2727)" fill="black"/>
<circle cx="1.69427" cy="1.69427" r="1.69427" transform="matrix(-4.45629e-08 1.01948 1.01948 4.45629e-08 16.409 34.5454)" fill="black"/>
</svg>
