<svg width="12" height="41" viewBox="0 0 12 41" fill="none" xmlns="http://www.w3.org/2000/svg">
<circle cx="0.967638" cy="0.967638" r="0.967638" transform="matrix(1.00884 0 0 -1.00884 6.15745e-05 1.9524)" fill="black"/>
<circle cx="0.967638" cy="0.967638" r="0.967638" transform="matrix(1.00884 0 0 -1.00884 6.15745e-05 25.3809)" fill="black"/>
<circle cx="0.967638" cy="0.967638" r="0.967638" transform="matrix(1.00884 0 0 -1.00884 6.15745e-05 9.7619)" fill="black"/>
<circle cx="0.967638" cy="0.967638" r="0.967638" transform="matrix(1.00884 0 0 -1.00884 6.15745e-05 33.1903)" fill="black"/>
<circle cx="0.967638" cy="0.967638" r="0.967638" transform="matrix(1.00884 0 0 -1.00884 6.15745e-05 17.5714)" fill="black"/>
<circle cx="0.967638" cy="0.967638" r="0.967638" transform="matrix(1.00884 0 0 -1.00884 0 41)" fill="black"/>
<circle cx="0.967638" cy="0.967638" r="0.967638" transform="matrix(1.00884 0 0 -1.00884 9.76196 1.9524)" fill="black"/>
<circle cx="0.967638" cy="0.967638" r="0.967638" transform="matrix(1.00884 0 0 -1.00884 9.76196 25.3809)" fill="black"/>
<circle cx="0.967638" cy="0.967638" r="0.967638" transform="matrix(1.00884 0 0 -1.00884 9.76196 9.7619)" fill="black"/>
<circle cx="0.967638" cy="0.967638" r="0.967638" transform="matrix(1.00884 0 0 -1.00884 9.76196 33.1904)" fill="black"/>
<circle cx="0.967638" cy="0.967638" r="0.967638" transform="matrix(1.00884 0 0 -1.00884 9.76196 17.5714)" fill="black"/>
<circle cx="0.967638" cy="0.967638" r="0.967638" transform="matrix(1.00884 0 0 -1.00884 9.76196 40.9998)" fill="black"/>
</svg>
