<svg width="20" height="20" viewBox="0 0 20 20" fill="none" xmlns="http://www.w3.org/2000/svg">
<g clip-path="url(#clip0_1_2323)">
<g clip-path="url(#clip1_1_2323)">
<path d="M10 1.66669C14.6025 1.66669 18.3334 5.39752 18.3334 10C18.3334 14.6025 14.6025 18.3334 10 18.3334C5.39752 18.3334 1.66669 14.6025 1.66669 10C1.66669 5.39752 5.39752 1.66669 10 1.66669ZM11.6667 5.83335C11.4626 5.83338 11.2656 5.90832 11.113 6.04395C10.9605 6.17958 10.8631 6.36648 10.8392 6.56919L10.8334 6.66669V9.16669H9.16669V6.66669L9.16085 6.56919C9.13676 6.36665 9.03922 6.17997 8.88672 6.04453C8.73421 5.90909 8.53732 5.83428 8.33335 5.83428C8.12938 5.83428 7.9325 5.90909 7.77999 6.04453C7.62748 6.17997 7.52995 6.36665 7.50585 6.56919L7.50002 6.66669V9.16669L7.50419 9.29169C7.53401 9.6885 7.70482 10.0615 7.98574 10.3434C8.26666 10.6252 8.63914 10.7972 9.03585 10.8284L9.16669 10.8334H10.8334V13.3334L10.8392 13.4309C10.8633 13.6334 10.9608 13.8201 11.1133 13.9555C11.2658 14.091 11.4627 14.1658 11.6667 14.1658C11.8707 14.1658 12.0675 14.091 12.22 13.9555C12.3726 13.8201 12.4701 13.6334 12.4942 13.4309L12.5 13.3334V6.66669L12.4942 6.56919C12.4703 6.36648 12.3729 6.17958 12.2203 6.04395C12.0678 5.90832 11.8708 5.83338 11.6667 5.83335Z" fill="black"/>
</g>
</g>
<defs>
<clipPath id="clip0_1_2323">
<rect width="20" height="20" fill="white"/>
</clipPath>
<clipPath id="clip1_1_2323">
<rect width="20" height="20" fill="white"/>
</clipPath>
</defs>
</svg>
