<svg width="20" height="20" viewBox="0 0 20 20" fill="none" xmlns="http://www.w3.org/2000/svg">
<g clip-path="url(#clip0_1_2330)">
<g clip-path="url(#clip1_1_2330)">
<path d="M10 1.66669C14.6025 1.66669 18.3334 5.39752 18.3334 10C18.3334 14.6025 14.6025 18.3334 10 18.3334C5.39752 18.3334 1.66669 14.6025 1.66669 10C1.66669 5.39752 5.39752 1.66669 10 1.66669ZM11.6667 5.83335H8.33335C8.12924 5.83338 7.93224 5.90832 7.77971 6.04395C7.62718 6.17958 7.52973 6.36648 7.50585 6.56919L7.50002 6.66669V10C7.50005 10.2041 7.57498 10.4011 7.71062 10.5537C7.84625 10.7062 8.03314 10.8036 8.23585 10.8275L8.33335 10.8334H10.8334V12.5H9.16669L9.16085 12.4025C9.13577 12.1916 9.03109 11.9982 8.86821 11.8619C8.70534 11.7256 8.49655 11.6566 8.28452 11.669C8.07248 11.6815 7.8732 11.7744 7.72739 11.9289C7.58159 12.0833 7.50026 12.2876 7.50002 12.5C7.49989 12.9205 7.65869 13.3255 7.9446 13.6338C8.23051 13.9421 8.62239 14.131 9.04169 14.1625L9.16669 14.1667H10.8334C11.2538 14.1668 11.6588 14.008 11.9671 13.7221C12.2755 13.4362 12.4643 13.0443 12.4959 12.625L12.5 12.5V10.8334C12.5002 10.4129 12.3413 10.0079 12.0554 9.69956C11.7695 9.39125 11.3776 9.20239 10.9584 9.17085L10.8334 9.16669H9.16669V7.50002H11.6667C11.8708 7.49999 12.0678 7.42506 12.2203 7.28942C12.3729 7.15379 12.4703 6.9669 12.4942 6.76419L12.5 6.66669C12.5 6.46258 12.4251 6.26557 12.2894 6.11304C12.1538 5.96051 11.9669 5.86307 11.7642 5.83919L11.6667 5.83335Z" fill="black"/>
</g>
</g>
<defs>
<clipPath id="clip0_1_2330">
<rect width="20" height="20" fill="white"/>
</clipPath>
<clipPath id="clip1_1_2330">
<rect width="20" height="20" fill="white"/>
</clipPath>
</defs>
</svg>
